<?xml version="1.0" encoding="UTF-8" standalone="no"?>
<!DOCTYPE svg PUBLIC "-//W3C//DTD SVG 1.1//EN" "http://www.w3.org/Graphics/SVG/1.1/DTD/svg11.dtd">
<svg width="100%" height="100%" viewBox="0 0 30 30" version="1.1" xmlns="http://www.w3.org/2000/svg" xmlns:xlink="http://www.w3.org/1999/xlink" xml:space="preserve" xmlns:serif="http://www.serif.com/" style="fill-rule:evenodd;clip-rule:evenodd;stroke-linejoin:round;stroke-miterlimit:2;">
    <g>
        <path d="M19.64,21.54L17,22.08C16.023,22.275 15.106,21.958 14.48,21.32C13.83,20.67 13.54,19.74 13.72,18.82L14.27,16.13C14.36,15.63 14.63,15.11 15.02,14.72C21.686,8.111 21.518,8.082 22.28,7.65L22.28,5.94C22.28,4.32 20.97,3 19.35,3L6.18,3C4.56,3 3.24,4.32 3.24,5.94L3.24,24.06C3.24,25.68 4.56,27 6.18,27L19.35,27C20.97,27 22.28,25.68 22.28,24.06L22.28,19.58L21.08,20.78C20.69,21.18 20.18,21.44 19.64,21.54ZM8.24,7L17.28,7C17.83,7 18.28,7.45 18.28,8C18.28,8.56 17.83,9 17.28,9L8.24,9C7.69,9 7.24,8.56 7.24,8C7.24,7.45 7.69,7 8.24,7ZM10.96,23L8.24,23C7.69,23 7.24,22.56 7.24,22C7.24,21.45 7.69,21 8.24,21L10.96,21C11.51,21 11.96,21.45 11.96,22C11.96,22.56 11.51,23 10.96,23ZM10.96,18.34L8.24,18.34C7.69,18.34 7.24,17.89 7.24,17.34C7.24,16.79 7.69,16.34 8.24,16.34L10.96,16.34C11.51,16.34 11.96,16.79 11.96,17.34C11.96,17.89 11.51,18.34 10.96,18.34ZM12.62,13.67L8.24,13.67C7.69,13.67 7.24,13.22 7.24,12.67C7.24,12.12 7.69,11.67 8.24,11.67L12.62,11.67C13.17,11.67 13.62,12.12 13.62,12.67C13.62,13.22 13.17,13.67 12.62,13.67Z" style="fill-rule:nonzero;"/>
        <path d="M26.088,9.71C25.2,8.823 23.751,8.817 22.858,9.71C16.249,16.385 16.299,16.114 16.222,16.534L15.676,19.207C15.626,19.466 15.704,19.731 15.885,19.912C16.073,20.1 16.337,20.177 16.596,20.127L19.27,19.582C19.683,19.505 19.381,19.591 26.093,12.945C26.986,12.053 26.981,10.603 26.088,9.71Z" style="fill-rule:nonzero;"/>
    </g>
</svg>
