<?xml version="1.0" encoding="UTF-8" standalone="no"?>
<!DOCTYPE svg PUBLIC "-//W3C//DTD SVG 1.1//EN" "http://www.w3.org/Graphics/SVG/1.1/DTD/svg11.dtd">
<svg width="100%" height="100%" viewBox="0 0 88 88" version="1.1" xmlns="http://www.w3.org/2000/svg" xmlns:xlink="http://www.w3.org/1999/xlink" xml:space="preserve" xmlns:serif="http://www.serif.com/" style="fill-rule:evenodd;clip-rule:evenodd;stroke-linejoin:round;stroke-miterlimit:2;">
    <g transform="matrix(1,0,0,1,-6,-6)">
        <path d="M84.973,47.641L15.028,47.641C12.614,47.641 10.657,49.598 10.657,52.012L10.657,64.707C10.657,67.121 12.614,69.078 15.028,69.078L84.973,69.078C87.387,69.078 89.344,67.121 89.344,64.707L89.344,52.012C89.344,49.598 87.387,47.641 84.973,47.641ZM21.95,61.696C20.11,61.696 18.618,60.204 18.618,58.364C18.618,56.524 20.11,55.032 21.95,55.032C23.79,55.032 25.282,56.524 25.282,58.364C25.282,60.204 23.79,61.696 21.95,61.696ZM79.173,59.864L35.95,59.864C35.122,59.864 34.45,59.192 34.45,58.364C34.45,57.536 35.122,56.864 35.95,56.864L79.173,56.864C80.001,56.864 80.673,57.536 80.673,58.364C80.673,59.192 80.001,59.864 79.173,59.864ZM84.974,72.083L15.029,72.083C12.615,72.083 10.658,74.04 10.658,76.454L10.658,89.149C10.658,91.563 12.615,93.52 15.029,93.52L84.974,93.52C87.388,93.52 89.345,91.563 89.345,89.149L89.345,76.454C89.345,74.04 87.388,72.083 84.974,72.083ZM21.951,86.138C20.111,86.138 18.619,84.646 18.619,82.806C18.619,80.966 20.111,79.474 21.951,79.474C23.791,79.474 25.283,80.966 25.283,82.806C25.283,84.646 23.791,86.138 21.951,86.138ZM79.174,84.302L35.951,84.302C35.123,84.302 34.451,83.63 34.451,82.802C34.451,81.974 35.123,81.302 35.951,81.302L79.174,81.302C80.002,81.302 80.674,81.974 80.674,82.802C80.674,83.63 80.002,84.302 79.174,84.302ZM89.346,27.458L89.346,27.45C89.346,27.415 89.342,27.38 89.342,27.345L89.342,27.325C89.342,27.294 89.338,27.263 89.334,27.232L89.334,27.216C89.283,26.56 89.084,25.946 88.772,25.407C88.768,25.4 88.768,25.392 88.764,25.384L78.623,9.056C77.615,7.439 75.877,6.474 73.974,6.474L26.064,6.478C24.158,6.478 22.42,7.443 21.416,9.06C21.416,9.06 11.365,25.189 11.334,25.24C11.334,25.24 11.33,25.251 11.322,25.267C10.904,25.935 10.658,26.724 10.658,27.572L10.658,40.267C10.658,42.681 12.615,44.638 15.029,44.638L84.974,44.638C87.388,44.638 89.345,42.681 89.345,40.267L89.345,27.459L89.346,27.458ZM21.951,37.255C20.111,37.255 18.619,35.763 18.619,33.923C18.619,32.083 20.111,30.591 21.951,30.591C23.791,30.591 25.283,32.083 25.283,33.923C25.283,35.763 23.791,37.255 21.951,37.255ZM79.174,35.423L35.951,35.423C35.123,35.423 34.451,34.751 34.451,33.923C34.451,33.095 35.123,32.423 35.951,32.423L79.174,32.423C80.002,32.423 80.674,33.095 80.674,33.923C80.674,34.751 80.002,35.423 79.174,35.423ZM17.322,23.2L24.81,11.173C25.084,10.736 25.552,10.478 26.064,10.478L73.974,10.478C74.49,10.478 74.958,10.739 75.228,11.173L82.716,23.2L17.322,23.2Z" style="fill-rule:nonzero;"/>
    </g>
</svg>
