<?xml version="1.0" encoding="UTF-8" standalone="no"?>
<!DOCTYPE svg PUBLIC "-//W3C//DTD SVG 1.1//EN" "http://www.w3.org/Graphics/SVG/1.1/DTD/svg11.dtd">
<svg width="100%" height="100%" viewBox="0 0 100 95" version="1.1" xmlns="http://www.w3.org/2000/svg" xmlns:xlink="http://www.w3.org/1999/xlink" xml:space="preserve" xmlns:serif="http://www.serif.com/" style="fill-rule:evenodd;clip-rule:evenodd;stroke-linejoin:round;stroke-miterlimit:2;">
    <g transform="matrix(6.12323e-17,1,-1,6.12323e-17,100,-2.99842)">
        <path d="M42.281,59.691C41.394,58.742 39.867,58.804 39.062,59.824L32.914,67.597C32.59,67.468 32.265,67.339 31.933,67.246C30.219,66.769 28.39,66.796 26.711,67.523C23.242,69.027 20.691,72.589 18.992,75.753C15.718,81.847 12.629,87.507 7.285,92.194C6.914,92.519 5.23,93.761 4.418,94.487C3.132,95.636 3.668,97.042 4.988,97.409C5.207,97.472 5.449,97.503 5.707,97.499C16.32,97.409 23.762,93.663 23.762,93.663C27.863,91.808 32.344,89.238 35.383,85.964C38.328,82.788 39.633,78.577 38.801,74.284C38.742,73.991 38.652,73.706 38.562,73.421L45.894,66.702C46.765,65.905 46.82,64.55 46.012,63.686L42.281,59.691Z" style="fill-rule:nonzero;"/>
    </g>
    <g transform="matrix(6.12323e-17,1,-1,6.12323e-17,100,-2.99842)">
        <path d="M49.375,60.395C50.152,61.235 51.461,61.305 52.324,60.559C82.66,34.305 89.57,17.332 95.824,5.297C96.664,3.813 96.34,2.781 95.512,2.551C95.02,2.414 94.348,2.559 93.641,3.063C64.875,23.422 48.34,46.797 44.434,52.684C43.891,53.5 43.984,54.578 44.652,55.297L49.375,60.395Z" style="fill-rule:nonzero;"/>
    </g>
</svg>
