<?xml version="1.0" encoding="UTF-8" standalone="no"?>
<!DOCTYPE svg PUBLIC "-//W3C//DTD SVG 1.1//EN" "http://www.w3.org/Graphics/SVG/1.1/DTD/svg11.dtd">
<svg width="100%" height="100%" viewBox="0 0 92 93" version="1.1" xmlns="http://www.w3.org/2000/svg" xmlns:xlink="http://www.w3.org/1999/xlink" xml:space="preserve" xmlns:serif="http://www.serif.com/" style="fill-rule:evenodd;clip-rule:evenodd;stroke-linejoin:round;stroke-miterlimit:2;">
    <g transform="matrix(1,0,0,1,-4,-4)">
        <path d="M93.398,85.801L68.199,60.5C72.398,54.699 74.898,47.602 74.898,39.898C74.898,20.699 59.199,5 39.898,5C20.601,5 5,20.699 5,39.898C5,59.097 20.699,74.796 39.898,74.796C47.597,74.796 54.699,72.296 60.5,68.097L85.801,93.398C86.903,94.499 88.2,94.999 89.602,94.999C91,94.999 92.403,94.499 93.403,93.398C95.501,91.3 95.501,87.898 93.399,85.8L93.398,85.801ZM15.8,39.899C15.8,26.598 26.601,15.797 39.902,15.797C53.203,15.797 64.004,26.598 64.004,39.899C64,53.2 53.301,64.102 39.899,64.102C26.501,64.102 15.801,53.301 15.801,39.899L15.8,39.899Z" style="fill-rule:nonzero;"/>
    </g>
</svg>
