<?xml version="1.0" encoding="UTF-8" standalone="no"?>
<!DOCTYPE svg PUBLIC "-//W3C//DTD SVG 1.1//EN" "http://www.w3.org/Graphics/SVG/1.1/DTD/svg11.dtd">
<svg width="100%" height="100%" viewBox="0 0 27 27" version="1.1" xmlns="http://www.w3.org/2000/svg" xmlns:xlink="http://www.w3.org/1999/xlink" xml:space="preserve" xmlns:serif="http://www.serif.com/" style="fill-rule:evenodd;clip-rule:evenodd;stroke-linejoin:round;stroke-miterlimit:2;">
    <g transform="matrix(1,0,0,1,-1,-1)">
        <path d="M14.5,2C7.643,2 2,7.643 2,14.5C2,21.357 7.643,27 14.5,27C21.357,27 27,21.357 27,14.5C26.992,7.646 21.354,2.008 14.5,2ZM14.5,25C8.74,25 4,20.26 4,14.5C4,8.74 8.74,4 14.5,4C20.26,4 25,8.74 25,14.5C24.993,20.258 20.258,24.993 14.5,25ZM14.5,10C15.597,10 16.5,9.097 16.5,8C16.5,6.903 15.597,6 14.5,6C13.403,6 12.5,6.903 12.5,8C12.5,9.097 13.403,10 14.5,10ZM19.856,10.01L14.624,10.772C14.542,10.783 14.458,10.783 14.376,10.772L9.144,10.01C9.097,10.004 9.05,10 9.003,10C8.454,10 8.003,10.452 8.003,11C8.003,11.494 8.368,11.917 8.856,11.99L12.077,12.458C12.197,12.476 12.287,12.58 12.287,12.702L12.287,16.561L12.202,16.955L10.136,21.496C10.047,21.649 10,21.823 10,22C10,22.549 10.451,23 11,23C11.355,23 11.685,22.811 11.864,22.504L14.258,17.521C14.304,17.426 14.402,17.364 14.508,17.364C14.615,17.364 14.712,17.426 14.758,17.522L17.136,22.504C17.315,22.809 17.644,22.998 17.998,22.998C18.547,22.998 18.999,22.546 18.999,21.997C18.999,21.821 18.952,21.648 18.864,21.496L16.766,16.883L16.713,16.638L16.713,12.702C16.713,12.58 16.803,12.476 16.923,12.458L20.144,11.99C20.632,11.918 20.997,11.494 20.997,11C20.997,10.452 20.546,10 19.997,10C19.95,10 19.903,10.004 19.856,10.01L19.856,10.01Z" style="fill-rule:nonzero;"/>
    </g>
</svg>
