<?xml version="1.0" encoding="UTF-8" standalone="no"?>
<!DOCTYPE svg PUBLIC "-//W3C//DTD SVG 1.1//EN" "http://www.w3.org/Graphics/SVG/1.1/DTD/svg11.dtd">
<svg width="100%" height="100%" viewBox="0 0 88 88" version="1.1" xmlns="http://www.w3.org/2000/svg" xmlns:xlink="http://www.w3.org/1999/xlink" xml:space="preserve" xmlns:serif="http://www.serif.com/" style="fill-rule:evenodd;clip-rule:evenodd;stroke-linejoin:round;stroke-miterlimit:2;">
    <g transform="matrix(1,0,0,1,-6,-6)">
        <path d="M57.086,89.031L47.086,79.031C50.016,75.863 53.195,72.937 56.598,70.281L66.23,79.914C68.68,82.453 68.641,86.484 66.145,88.972C63.645,91.461 59.613,91.488 57.086,89.031L57.086,89.031ZM39.891,62.75C32.43,66.176 23.852,66.188 16.383,62.781C14.977,65.328 15.426,68.496 17.481,70.555L27.543,80.645C30.125,83.207 34.289,83.207 36.871,80.645L47.328,70.188L39.891,62.75ZM88.883,49.551C88.68,48.282 88.067,47.117 87.145,46.227L69.524,28.575L51.872,10.923C50.212,9.282 47.778,8.7 45.559,9.411C43.337,10.122 41.692,12.009 41.294,14.306C57.97,23.052 60.021,47.892 45.165,59.396L51.63,65.86C51.743,65.97 51.844,66.095 51.934,66.228C60.606,59.556 71.407,56.251 82.329,56.927C84.255,57.06 86.138,56.294 87.419,54.849C88.7,53.407 89.243,51.446 88.884,49.552L88.883,49.551ZM93.254,28.899C93.246,23.633 91.152,18.587 87.43,14.864C83.707,11.141 78.66,9.048 73.399,9.044C71.719,9.048 70.36,10.411 70.36,12.091C70.36,13.77 71.719,15.134 73.399,15.141C80.993,15.149 87.145,21.306 87.157,28.899C87.18,30.564 88.536,31.903 90.204,31.903C91.872,31.903 93.227,30.564 93.255,28.899L93.254,28.899ZM83.731,28.899L83.727,28.899C83.723,23.196 79.102,18.575 73.399,18.567C71.719,18.571 70.36,19.934 70.36,21.614C70.36,23.298 71.719,24.661 73.399,24.665C75.735,24.669 77.629,26.563 77.629,28.899C77.653,30.567 79.012,31.907 80.68,31.907C82.348,31.907 83.707,30.567 83.727,28.899L83.731,28.899ZM42.969,53.118C38.363,57.626 31.969,59.813 25.567,59.075C19.164,58.333 13.438,54.747 9.981,49.306C-2.273,28.454 22.969,7.173 41.169,21.564L41.173,21.564C45.895,25.317 48.794,30.911 49.137,36.939C49.477,42.962 47.235,48.849 42.969,53.119L42.969,53.118ZM25.043,32.052C25.043,30.392 26.387,29.048 28.047,29.048C29.703,29.048 31.047,30.392 31.047,32.052C31.047,33.736 32.414,35.099 34.097,35.099C35.781,35.099 37.144,33.736 37.144,32.052C37.136,28.185 34.695,24.74 31.047,23.454C31.058,22.638 30.746,21.857 30.176,21.275C29.605,20.693 28.828,20.364 28.015,20.361C27.203,20.357 26.422,20.677 25.843,21.251C25.269,21.829 24.949,22.611 24.949,23.423C15.55,26.607 17.843,41.302 27.937,41.165C29.172,41.134 30.3,41.853 30.793,42.981C31.289,44.11 31.05,45.427 30.195,46.313C29.336,47.196 28.027,47.474 26.883,47.013C25.738,46.556 24.988,45.446 24.98,44.216C24.984,43.403 24.664,42.626 24.094,42.052C23.519,41.477 22.742,41.157 21.933,41.157C21.121,41.157 20.344,41.477 19.773,42.052C19.203,42.626 18.882,43.403 18.882,44.216C18.898,48.071 21.324,51.505 24.949,52.813C24.937,53.626 25.254,54.411 25.824,54.989C26.39,55.571 27.172,55.899 27.984,55.903C28.797,55.907 29.578,55.587 30.156,55.013C30.73,54.439 31.051,53.657 31.047,52.845C40.445,49.622 38.144,35.036 28.09,35.072L28.09,35.068C27.273,35.115 26.476,34.814 25.894,34.24C25.312,33.662 25.004,32.869 25.043,32.052L25.043,32.052Z" style="fill-rule:nonzero;"/>
    </g>
</svg>
